HIERARCHY
ROOT hip
{
	OFFSET 0.000000 0.000000 0.000000
	CHANNELS 6 Xposition Yposition Zposition Xrotation Zrotation Yrotation 
	JOINT abdomen
	{
		OFFSET 0.000000 3.422050 0.000000
		CHANNELS 3 Xrotation Zrotation Yrotation 
		JOINT chest
		{
			OFFSET 0.000000 8.486693 -0.684411
			CHANNELS 3 Xrotation Zrotation Yrotation 
			JOINT neck
			{
				OFFSET 0.000000 10.266162 -0.273764
				CHANNELS 3 Xrotation Zrotation Yrotation 
				JOINT head
				{
					OFFSET 0.000000 3.148285 0.000000
					CHANNELS 3 Xrotation Zrotation Yrotation 
					End Site
					{
						OFFSET 0.000000 3.148289 0.000000
					}
				}
			}
			JOINT lCollar
			{
				OFFSET 3.422053 6.707223 -0.821293
				CHANNELS 3 Yrotation Zrotation Xrotation 
				JOINT lShldr
				{
					OFFSET 3.285171 0.000000 0.000000
					CHANNELS 3 Zrotation Yrotation Xrotation 
					JOINT lForeArm
					{
						OFFSET 10.129278 0.000000 0.000000
						CHANNELS 3 Yrotation Zrotation Xrotation 
						JOINT lHand
						{
							OFFSET 8.486692 0.000000 0.000000
							CHANNELS 3 Zrotation Yrotation Xrotation 
							End Site
							{
								OFFSET 4.106464 0.000000 0.000000
							}
						}
					}
				}
			}
			JOINT rCollar
			{
				OFFSET -3.558935 6.707223 -0.821293
				CHANNELS 3 Yrotation Zrotation Xrotation 
				JOINT rShldr
				{
					OFFSET -3.148289 0.000000 0.000000
					CHANNELS 3 Zrotation Yrotation Xrotation 
					JOINT rForeArm
					{
						OFFSET -10.266159 0.000000 0.000000
						CHANNELS 3 Yrotation Zrotation Xrotation 
						JOINT rHand
						{
							OFFSET -8.349810 0.000000 0.000000
							CHANNELS 3 Zrotation Yrotation Xrotation 
							End Site
							{
								OFFSET -4.106464 0.000000 0.000000
							}
						}
					}
				}
			}
		}
	}
	JOINT lThigh
	{
		OFFSET 5.338403 -1.642589 1.368821
		CHANNELS 3 Xrotation Zrotation Yrotation 
		JOINT lShin
		{
			OFFSET -2.053232 -20.121670 0.000000
			CHANNELS 3 Xrotation Zrotation Yrotation 
			JOINT lFoot
			{
				OFFSET 0.000000 -19.300380 -1.231939
				CHANNELS 3 Xrotation Yrotation Zrotation 
				End Site
				{
					OFFSET 0.000000 -2.463878 4.653993
				}
			}
		}
	}
	JOINT rThigh
	{
		OFFSET -5.338403 -1.642589 1.368821
		CHANNELS 3 Xrotation Zrotation Yrotation 
		JOINT rShin
		{
			OFFSET 2.053232 -20.121670 0.000000
			CHANNELS 3 Xrotation Zrotation Yrotation 
			JOINT rFoot
			{
				OFFSET 0.000000 -19.300380 -1.231939
				CHANNELS 3 Xrotation Yrotation Zrotation 
				End Site
				{
					OFFSET 0.000000 -2.463878 4.653993
				}
			}
		}
	}
}
MOTION
Frames: 16
Frame Time: 0.033264
1.432780 35.277222 -4.526641 -27.024021 -5.566020 -14.986250 16.764290 4.982493 3.896341 10.955608 -2.320561 -0.147019 24.998707 -4.000118 -0.000028 -39.256657 -17.890638 -1.375422 4.000649 0.719574 -5.522907 -71.510658 -30.961136 63.809505 -36.240452 10.365219 17.246746 22.130222 3.023166 5.172807 10.549182 -12.902308 1.328685 62.137661 18.900400 -10.279100 85.049271 2.179796 5.054397 -9.438049 -14.439237 -28.402628 -40.521626 17.365707 22.332968 33.560242 1.537593 -0.392954 38.434700 -20.458599 -0.553756 -46.817333 0.452469 -12.059060 28.971418 1.504161 -1.159259 43.575314 -8.011072 -14.069588 
1.432780 35.277222 -4.526641 -27.024021 -5.566020 -14.986250 16.764290 4.982493 3.896341 10.955608 -2.320561 -0.147019 24.998707 -4.000118 -0.000028 -39.235958 -18.359406 -1.431100 4.000649 0.719574 -5.522907 -71.510658 -30.961136 63.809505 -36.150558 10.427079 17.245323 22.153898 3.023104 5.172331 10.549182 -12.902308 1.328685 62.137661 18.900400 -10.279100 85.049271 2.179796 5.054397 -9.438049 -14.439237 -28.402628 -40.521618 17.365705 22.332968 33.560234 1.537593 -0.392954 38.434700 -20.458599 -0.553756 -46.817333 0.452469 -12.059060 28.971418 1.504161 -1.159259 43.575314 -8.011072 -14.069588 
1.432780 35.277222 -4.526641 -27.024021 -5.566020 -14.986250 16.764290 4.982493 3.896341 10.955608 -2.320561 -0.147019 24.998707 -4.000118 -0.000028 -39.214745 -18.827400 -1.487021 4.000649 0.719574 -5.522907 -71.510658 -30.961136 63.809505 -36.060665 10.488937 17.243807 22.177574 3.023043 5.171856 10.549182 -12.902308 1.328685 62.137661 18.900400 -10.279100 85.049271 2.179796 5.054397 -9.438049 -14.439237 -28.402628 -40.521618 17.365705 22.332968 33.560234 1.537593 -0.392954 38.434700 -20.458599 -0.553756 -46.817333 0.452469 -12.059060 28.971418 1.504161 -1.159259 43.575314 -8.011072 -14.069588 
1.432780 35.277222 -4.526641 -27.024021 -5.566020 -14.986250 16.764290 4.982493 3.896341 10.955608 -2.320561 -0.147019 24.998707 -4.000118 -0.000028 -39.193035 -19.294617 -1.543193 4.000649 0.719574 -5.522907 -71.510658 -30.961136 63.809505 -35.970741 10.550787 17.242188 22.201248 3.022981 5.171380 10.549182 -12.902308 1.328685 62.137661 18.900400 -10.279100 85.049271 2.179796 5.054397 -9.438049 -14.439237 -28.402628 -40.521618 17.365705 22.332968 33.560234 1.537593 -0.392954 38.434700 -20.458599 -0.553756 -46.817333 0.452469 -12.059060 28.971418 1.504161 -1.159259 43.575314 -8.011072 -14.069588 
1.432780 35.277222 -4.526641 -27.024021 -5.566020 -14.986250 16.764290 4.982493 3.896341 10.955608 -2.320561 -0.147019 24.998707 -4.000118 -0.000028 -39.170815 -19.761038 -1.599619 4.000649 0.719574 -5.522907 -71.510658 -30.961136 63.809505 -35.880802 10.612633 17.240469 22.224928 3.022919 5.170905 10.549182 -12.902308 1.328685 62.137661 18.900400 -10.279100 85.049271 2.179796 5.054397 -9.438049 -14.439237 -28.402628 -40.521618 17.365705 22.332968 33.560234 1.537593 -0.392954 38.434700 -20.458599 -0.553756 -46.817333 0.452469 -12.059060 28.971418 1.504161 -1.159259 43.575314 -8.011072 -14.069588 
1.432780 35.277222 -4.526641 -27.024021 -5.566020 -14.986250 16.764290 4.982493 3.896341 10.955608 -2.320561 -0.147019 24.998707 -4.000118 -0.000028 -39.148079 -20.226652 -1.656312 4.000649 0.719574 -5.522907 -71.510658 -30.961136 63.809505 -35.790848 10.674476 17.238653 22.248604 3.022859 5.170429 10.549182 -12.902308 1.328685 62.137661 18.900400 -10.279100 85.049271 2.179796 5.054397 -9.438049 -14.439237 -28.402628 -40.521618 17.365705 22.332968 33.560234 1.537593 -0.392954 38.434700 -20.458599 -0.553756 -46.817333 0.452469 -12.059060 28.971418 1.504161 -1.159259 43.575314 -8.011072 -14.069588 
1.432780 35.277222 -4.526641 -27.024021 -5.566020 -14.986250 16.764290 4.982493 3.896341 10.955608 -2.320561 -0.147019 24.998707 -4.000118 -0.000028 -39.124802 -20.691435 -1.713274 4.000649 0.719574 -5.522907 -71.510658 -30.961136 63.809505 -35.700878 10.736312 17.236734 22.272280 3.022798 5.169954 10.549182 -12.902308 1.328685 62.137661 18.900400 -10.279100 85.049271 2.179796 5.054397 -9.438049 -14.439237 -28.402628 -40.521618 17.365705 22.332968 33.560234 1.537593 -0.392954 38.434700 -20.458599 -0.553756 -46.817333 0.452469 -12.059060 28.971418 1.504161 -1.159259 43.575314 -8.011072 -14.069588 
1.432780 35.277222 -4.526641 -27.024021 -5.566020 -14.986250 16.764290 4.982493 3.896341 10.955608 -2.320561 -0.147019 24.998707 -4.000118 -0.000028 -39.101017 -21.155378 -1.770514 4.000649 0.719574 -5.522907 -71.510658 -30.961136 63.809505 -35.610893 10.798146 17.234722 22.295952 3.022737 5.169477 10.549182 -12.902308 1.328685 62.137661 18.900400 -10.279100 85.049271 2.179796 5.054397 -9.438049 -14.439237 -28.402628 -40.521618 17.365705 22.332968 33.560234 1.537593 -0.392954 38.434700 -20.458599 -0.553756 -46.817333 0.452469 -12.059060 28.971418 1.504161 -1.159259 43.575314 -8.011072 -14.069588 
1.432780 35.277222 -4.526641 -27.024021 -5.566020 -14.986250 16.764290 4.982493 3.896341 10.955608 -2.320561 -0.147019 24.998707 -4.000118 -0.000028 -39.076702 -21.618475 -1.828039 4.000649 0.719574 -5.522907 -71.510658 -30.961136 63.809505 -35.520882 10.859967 17.232605 22.319630 3.022676 5.169002 10.549182 -12.902308 1.328685 62.137661 18.900400 -10.279100 85.049271 2.179796 5.054397 -9.438049 -14.439237 -28.402628 -40.521618 17.365705 22.332968 33.560234 1.537593 -0.392954 38.434700 -20.458599 -0.553756 -46.817333 0.452469 -12.059060 28.971418 1.504161 -1.159259 43.575314 -8.011072 -14.069588 
1.432780 35.277222 -4.526641 -27.024021 -5.566020 -14.986250 16.764290 4.982493 3.896341 10.955608 -2.320561 -0.147019 24.998707 -4.000118 -0.000028 -39.051853 -22.080704 -1.885858 4.000649 0.719574 -5.522907 -71.510658 -30.961136 63.809505 -35.430855 10.921786 17.230391 22.343307 3.022616 5.168527 10.549182 -12.902308 1.328685 62.137661 18.900400 -10.279100 85.049271 2.179796 5.054397 -9.438049 -14.439237 -28.402628 -40.521618 17.365705 22.332968 33.560234 1.537593 -0.392954 38.434700 -20.458599 -0.553756 -46.817333 0.452469 -12.059060 28.971418 1.504161 -1.159259 43.575314 -8.011072 -14.069588 
1.432780 35.277222 -4.526641 -27.024021 -5.566020 -14.986250 16.764290 4.982493 3.896341 10.955608 -2.320561 -0.147019 24.998707 -4.000118 -0.000028 -39.026463 -22.542053 -1.943979 4.000649 0.719574 -5.522907 -71.510658 -30.961136 63.809505 -35.340816 10.983599 17.228077 22.366982 3.022556 5.168050 10.549182 -12.902308 1.328685 62.137661 18.900400 -10.279100 85.049271 2.179796 5.054397 -9.438049 -14.439237 -28.402628 -40.521618 17.365705 22.332968 33.560234 1.537593 -0.392954 38.434700 -20.458599 -0.553756 -46.817333 0.452469 -12.059060 28.971418 1.504161 -1.159259 43.575314 -8.011072 -14.069588 
1.432780 35.277222 -4.526641 -27.024021 -5.566020 -14.986250 16.764290 4.982493 3.896341 10.955608 -2.320561 -0.147019 24.998707 -4.000118 -0.000028 -39.000523 -23.002506 -2.002406 4.000649 0.719574 -5.522907 -71.510658 -30.961136 63.809505 -35.250759 11.045406 17.225666 22.390657 3.022496 5.167575 10.549182 -12.902308 1.328685 62.137661 18.900400 -10.279100 85.049271 2.179796 5.054397 -9.438049 -14.439237 -28.402628 -40.521618 17.365705 22.332968 33.560234 1.537593 -0.392954 38.434700 -20.458599 -0.553756 -46.817333 0.452469 -12.059060 28.971418 1.504161 -1.159259 43.575314 -8.011072 -14.069588 
1.432780 35.277222 -4.526641 -27.024021 -5.566020 -14.986250 16.764290 4.982493 3.896341 10.955608 -2.320561 -0.147019 24.998707 -4.000118 -0.000028 -38.993965 -22.681711 -2.025373 4.000649 0.719574 -5.522907 -71.510658 -30.961136 63.809505 -35.160683 11.107207 17.223154 22.414330 3.022436 5.167099 10.549182 -12.902308 1.328685 62.137661 18.900400 -10.279100 85.049271 2.179796 5.054397 -9.438049 -14.439237 -28.402628 -40.521618 17.365705 22.332968 33.560238 1.537593 -0.392954 38.434700 -20.458599 -0.553756 -46.817333 0.452469 -12.059060 28.971418 1.504161 -1.159259 43.575314 -8.011072 -14.069588 
1.432780 35.277222 -4.526641 -27.024021 -5.566020 -14.986250 16.764290 4.982493 3.896341 10.955608 -2.320561 -0.147019 24.998707 -4.000118 -0.000028 -38.987526 -22.360544 -2.048272 4.000649 0.719574 -5.522907 -71.510658 -30.961136 63.809505 -35.070599 11.169003 17.220547 22.438009 3.022376 5.166624 10.549182 -12.902308 1.328685 62.137661 18.900400 -10.279100 85.049271 2.179796 5.054397 -9.438049 -14.439237 -28.402628 -40.521618 17.365705 22.332968 33.560234 1.537593 -0.392954 38.434700 -20.458599 -0.553756 -46.817333 0.452469 -12.059060 28.971418 1.504161 -1.159259 43.575314 -8.011072 -14.069588 
1.432780 35.277222 -4.526641 -27.024021 -5.566020 -14.986250 16.764290 4.982493 3.896341 10.955608 -2.320561 -0.147019 24.998707 -4.000118 -0.000028 -38.981258 -22.039034 -2.071106 4.000649 0.719574 -5.522907 -71.510658 -30.961136 63.809505 -34.980492 11.230786 17.217834 22.461679 3.022316 5.166147 10.549182 -12.902308 1.328685 62.137661 18.900400 -10.279100 85.049271 2.179796 5.054397 -9.438049 -14.439237 -28.402628 -40.521618 17.365705 22.332968 33.560234 1.537593 -0.392954 38.434700 -20.458599 -0.553756 -46.817333 0.452469 -12.059060 28.971418 1.504161 -1.159259 43.575314 -8.011072 -14.069588 
1.432780 35.277222 -4.526641 -27.024021 -5.566020 -14.986250 16.764290 4.982493 3.896341 10.955608 -2.320561 -0.147019 24.998707 -4.000118 -0.000028 -38.975121 -21.717167 -2.093876 4.000649 0.719574 -5.522907 -71.510658 -30.961136 63.809505 -34.890354 11.292562 17.215021 22.485361 3.022258 5.165672 10.549182 -12.902308 1.328685 62.137661 18.900400 -10.279100 85.049271 2.179796 5.054397 -9.438049 -14.439237 -28.402628 -40.521618 17.365705 22.332968 33.560234 1.537593 -0.392954 38.434700 -20.458599 -0.553756 -46.817333 0.452469 -12.059060 28.971418 1.504161 -1.159259 43.575314 -8.011072 -14.069588 
